<?xml version="1.0" encoding="UTF-8"?>
<svg width="2470px" height="480px" viewBox="0 0 247 48" version="1.1" xmlns="http://www.w3.org/2000/svg" xmlns:xlink="http://www.w3.org/1999/xlink">
    <!-- Generator: Sketch 52 (66869) - http://www.bohemiancoding.com/sketch -->
    <title>Group</title>
    <desc>Created with Sketch.</desc>
    <g id="Page-1" stroke="none" stroke-width="1" fill="none" fill-rule="evenodd">
        <g id="Group" fill-rule="nonzero">
            <path d="M175.790439,26.7793149 C175.790439,26.4801047 175.790439,26.1808944 175.790439,25.8816842 C175.758179,22.8443244 174.170881,20.0527832 171.620767,18.5485825 C169.070653,17.0443818 165.940745,17.0534508 163.39881,18.5724059 C160.254573,20.523157 158.608785,24.2870522 159.268268,28.0189001 C159.368214,30.4844961 160.492879,32.7851191 162.353079,34.3292154 C164.213279,35.8733117 166.627523,36.5102311 168.975043,36.0762039 C173.149022,35.1365625 176.040619,31.1921309 175.790439,26.7793149 Z M182.110169,0.0213721587 L182.110169,41.1414055 L175.914355,41.1414055 L175.914355,36.5891357 C175.679344,36.7224734 175.457928,36.8799998 175.253468,37.0593232 C169.925068,44.4540901 159.578058,42.7229453 155.240988,35.8838545 C151.681603,29.8134242 152.049594,22.1126026 156.17036,16.4351901 C158.49238,13.5505152 161.911349,11.8526832 165.538713,11.7829419 C169.166078,11.7132005 172.643631,13.278437 175.067594,16.0718634 C175.20806,16.2748313 175.332384,16.489256 175.439343,16.7130281 L175.749133,16.5206787 C175.749133,16.2214685 175.749133,15.9008861 175.749133,15.6016759 C175.749133,11.5195936 175.749133,7.4588834 175.749133,3.37680108 C175.749133,2.30819314 175.996966,1.79526133 177.09156,1.53879543 C178.702472,1.13272441 180.272078,0.534303968 181.862337,0 L182.110169,0.0213721587 Z" id="Shape" fill="#001C5E"></path>
            <path d="M246.935454,28.5170073 L246.397574,30.4855865 C244.68837,36.9475243 239.012594,41.5514589 232.369652,41.8644068 C233.488443,40.8044026 234.521174,39.9823586 235.338752,39.0088853 C238.623809,35.5177424 240.349031,30.8295117 240.11513,26.0292424 C239.848967,21.0859684 235.721108,17.2518749 230.799041,17.3761471 C226.028353,17.4197575 222.138939,21.2350344 221.977802,26.0292424 C221.687921,28.8916055 222.728599,31.7282101 224.797742,33.7156267 C226.866884,35.7030432 229.732703,36.6186393 232.563289,36.1966294 C232.563289,36.1966294 232.713895,36.1966294 232.929048,36.1966294 C232.472422,38.2298099 231.450129,40.0904924 229.981463,41.5615484 C229.699657,41.7392941 229.36338,41.8084537 229.034793,41.7562431 C221.672307,40.951437 215.984357,34.8840734 215.620136,27.4467623 C215.255915,20.0094513 220.323523,13.4095946 227.571758,11.8814316 C237.963609,9.84795419 245.773633,16.5324703 246.763333,24.3851543 C246.809458,24.6397867 246.889044,24.8871241 247,25.1206674 L246.935454,28.5170073 Z" id="Shape" fill="#001C5E"></path>
            <path d="M191.771078,24.6049077 L206.140809,24.6049077 C205.73431,19.9217163 202.909144,16.9278953 198.986431,16.9706642 C195.044253,17.1154949 191.886584,20.4564842 191.771078,24.6049077 M212.461864,29.0101015 L191.730428,29.0101015 C191.95853,31.9372921 193.701034,34.4940988 196.262889,35.660661 C200.160344,37.3823417 204.666199,36.3278923 207.50258,33.0303754 L211.120419,36.4518851 C207.964408,40.3753578 203.145886,42.3678871 198.295383,41.7552252 C192.359975,41.4600811 187.303909,37.1210696 185.836196,31.0630073 C184.103441,24.7525559 186.294059,17.9747085 191.323929,14.0837654 C195.077697,11.2790172 199.947314,10.728904 204.181451,12.6312707 C208.415588,14.5336373 211.405427,18.6149464 212.075691,23.4073793 C212.258615,24.5835233 212.299265,25.7810517 212.380565,26.9785801 C212.380565,27.5773443 212.380565,28.1547241 212.380565,29.1170237" id="Shape" fill="#001C5E"></path>
            <path d="M91.7632869,11.6238472 C87.5442476,15.4918999 85.3134019,21.3201007 85.7725032,27.2750815 C85.9649059,32.1866553 89.7058073,36.0636667 94.2594468,36.0708164 C98.8209773,36.1067718 102.551767,32.1562182 102.606605,27.2319651 C102.869816,24.3049989 101.82489,21.4178859 99.7933151,19.4588923 C97.7617403,17.4998988 94.9868661,16.7036799 92.3224267,17.3152051 C92.1826418,17.3152051 92.0228875,17.3152051 91.8032255,17.3152051 C92.1977587,15.2881417 93.1433333,13.4341686 94.5190474,11.9903362 C95.0319056,11.6078494 95.6587651,11.4463554 96.276344,11.5376145 C102.926319,12.2643853 108.169223,17.9717385 108.787081,25.1566301 C109.404938,32.3415216 105.224843,38.9932757 98.8124424,41.0291964 C91.6342787,43.6299363 83.793679,39.9784217 80.6204292,32.5568341 C78.9357171,28.1771242 79.2382998,23.1999275 81.4387952,19.0954965 C83.6392906,14.9910655 87.4862033,12.2284969 91.843164,11.6238472" id="Shape" fill="#001C5E"></path>
            <path d="M24.446135,47.0974576 C27.7691152,44.3808819 30.4865283,40.9644086 32.4152741,37.0782409 C34.9038217,32.5151726 35.5667198,27.137005 34.2637858,22.0810554 C32.4246998,15.7614138 26.1678416,11.9519237 19.886473,13.3274239 C19.5783877,13.3274239 19.2497634,13.3274239 18.8389831,13.4539824 C19.4943601,10.4598676 20.9946134,7.73058378 23.1521769,5.6073537 C23.5426724,5.31401051 24.0278562,5.18566762 24.5077521,5.24877121 C35.4043682,5.76804013 43.9740978,15.0007692 43.9576033,26.2033657 C43.9411089,37.4059622 35.3442305,46.6120334 24.446135,47.0974576" id="Shape" fill="#001C5E"></path>
            <path d="M24.0720339,39.1898379 C23.439528,42.0453159 22.0560509,44.6665351 20.0731071,46.7664461 C19.7590594,47.0229872 19.3575696,47.1378123 18.9600037,47.0847909 C8.47363972,46.3070991 0.273149446,37.4614144 0.00666478887,26.64025 C-0.259819868,15.8190855 7.4947413,6.55689014 17.9293525,5.23305085 C17.4552529,5.65751069 17.1254445,5.95463257 16.8162492,6.27297745 C10.7365077,11.963901 7.88611571,20.4482553 9.25126904,28.7905719 C9.74245501,32.0765599 11.4889741,35.0240804 14.1021547,36.97719 C16.7153353,38.9302996 19.9783556,39.7269442 23.1650608,39.1898379 C23.4670203,39.1682095 23.7700744,39.1682095 24.0720339,39.1898379" id="Shape" fill="#001C5E"></path>
            <path d="M75.4837526,32.5920797 L78.4957627,37.0835632 C73.9166933,43.0149003 63.9852005,43.5306688 58.1443431,38.050629 C55.2254965,35.261288 53.5070245,31.337955 53.3841839,27.1830156 C53.2613432,23.0280761 54.7447082,18.9991892 57.4930976,16.0230184 C63.3361754,10.0595286 72.5874143,10.0027323 78.4957627,15.8940763 L75.2395356,20.8153669 C75.01567,20.6219537 74.8121558,20.4930116 74.6493444,20.3210888 C71.1896031,16.9471035 66.9768592,16.2809026 63.6188749,18.5803703 C60.06984,21.2962823 58.7342431,26.2191719 60.3829992,30.5075155 C61.3473244,33.1017701 63.3997609,35.0746032 65.9361007,35.8452408 C68.4724406,36.6158785 71.2039465,36.0965913 73.3265021,34.4402499 C74.0795046,33.9029911 74.7511015,33.2582806 75.5448069,32.5920797" id="Shape" fill="#001C5E"></path>
            <path d="M123.99597,33.2888233 L129.233902,19.0412959 C129.901283,17.2162851 130.588888,15.3912743 131.256269,13.5455248 C131.369424,12.912194 131.948853,12.482552 132.570808,12.5708031 C134.370715,12.5708031 136.190846,12.5708031 138.152542,12.5708031 C138.0312,12.9648395 137.970529,13.2759209 137.849187,13.5662635 C134.330268,22.297281 130.791125,31.0282986 127.292429,39.7593161 C127.14061,40.4667045 126.470801,40.9246169 125.775653,40.796254 C124.481338,40.796254 123.207247,40.796254 121.912931,40.796254 C121.505422,40.7599696 121.134813,40.5395418 120.901748,40.19483 C117.194074,31.166557 113.526848,22.131371 109.900069,13.0892721 C109.892068,12.9303808 109.892068,12.7711719 109.900069,12.6122806 C111.922436,12.6122806 113.944804,12.6122806 115.967171,12.6122806 C116.270526,12.6122806 116.695223,13.1722271 116.836789,13.5662635 C119.081617,19.6219811 121.285998,25.7191763 123.510602,31.7956326 L124.076865,33.2680845" id="Shape" fill="#001C5E"></path>
            <path d="M147.572034,40.8177966 L142.990372,40.8177966 C142.272351,40.8177966 142.340734,40.2290784 142.340734,39.6824115 L142.340734,12.559322 L147.572034,12.559322 L147.572034,40.8177966 Z" id="Shape" fill="#001C5E"></path>
            <path d="M16.7852109,26.2549408 C16.7852109,24.3494543 16.7852109,22.4649073 16.7852109,20.5803603 C16.7852109,18.6958133 17.5150027,18.4864192 18.9154139,19.2611774 C22.0712703,21.124785 25.2271266,23.009332 28.3435348,24.9148184 C29.6256014,25.6895767 29.6256014,26.5899713 28.3435348,27.3647295 C25.1482302,29.3330342 21.9529257,31.25946 18.7181729,33.1649464 C17.5544509,33.855947 16.7457627,33.4371588 16.7457627,32.0342182 C16.7457627,30.1077924 16.7457627,28.1813666 16.7457627,26.2549408" id="Shape" fill="#FF8C21"></path>
        </g>
    </g>
</svg>